<svg width="409" height="487" viewBox="0 0 409 487" fill="none" xmlns="http://www.w3.org/2000/svg">
<path d="M32.3978 105.137L204.5 5.7735L376.602 105.137V303.863L204.5 403.226L32.3978 303.863V105.137Z" stroke="#3EC98C" stroke-width="10"/>
<path d="M60 288L205.25 202.5M350.5 288L205.25 202.5M205.25 202.5V35.5" stroke="#51BC8D" stroke-width="9"/>
<path d="M60.1106 121.137L204.5 37.7735L348.889 121.137V287.863L204.5 371.226L60.1106 287.863V121.137Z" stroke="#3EC98C" stroke-width="10"/>
<path d="M33 8L204.5 402.5V275.5L33 8Z" fill="#41655F" stroke="#3EC98C" stroke-width="4"/>
<path d="M376.5 8L205 402.5V275.5L376.5 8Z" fill="#41655F" stroke="#3EC98C" stroke-width="4"/>
<path d="M104.8 439L89.65 474H81.65L66.55 439H75.3L85.95 464L96.75 439H104.8ZM123.228 438.4C126.461 438.4 129.278 439.033 131.678 440.3C134.078 441.567 135.945 443.433 137.278 445.9C138.611 448.367 139.278 451.35 139.278 454.85V474H131.178V465.6H115.178V474H107.178V454.85C107.178 451.35 107.845 448.367 109.178 445.9C110.511 443.433 112.378 441.567 114.778 440.3C117.178 439.033 119.995 438.4 123.228 438.4ZM131.178 459.1V454.1C131.178 451.2 130.461 449.017 129.028 447.55C127.595 446.05 125.645 445.3 123.178 445.3C120.678 445.3 118.711 446.05 117.278 447.55C115.878 449.017 115.178 451.2 115.178 454.1V459.1H131.178ZM147.273 439H155.373V467.4H172.923V474H147.273V439ZM193.749 445.3C190.949 445.3 188.832 445.917 187.399 447.15C185.965 448.35 185.249 450.167 185.249 452.6V454.75H199.649V461.25H185.249V474H177.149V452.65C177.149 448.15 178.549 444.65 181.349 442.15C184.182 439.65 188.132 438.4 193.199 438.4C195.199 438.4 197.082 438.617 198.849 439.05C200.615 439.45 202.149 440.05 203.449 440.85L200.949 447.25C198.949 445.95 196.549 445.3 193.749 445.3ZM224.575 474.6C220.941 474.6 217.658 473.817 214.725 472.25C211.825 470.683 209.541 468.533 207.875 465.8C206.241 463.033 205.425 459.933 205.425 456.5C205.425 453.067 206.241 449.983 207.875 447.25C209.541 444.483 211.825 442.317 214.725 440.75C217.658 439.183 220.941 438.4 224.575 438.4C228.208 438.4 231.475 439.183 234.375 440.75C237.275 442.317 239.558 444.483 241.225 447.25C242.891 449.983 243.725 453.067 243.725 456.5C243.725 459.933 242.891 463.033 241.225 465.8C239.558 468.533 237.275 470.683 234.375 472.25C231.475 473.817 228.208 474.6 224.575 474.6ZM224.575 467.7C226.641 467.7 228.508 467.233 230.175 466.3C231.841 465.333 233.141 464 234.075 462.3C235.041 460.6 235.525 458.667 235.525 456.5C235.525 454.333 235.041 452.4 234.075 450.7C233.141 449 231.841 447.683 230.175 446.75C228.508 445.783 226.641 445.3 224.575 445.3C222.508 445.3 220.641 445.783 218.975 446.75C217.308 447.683 215.991 449 215.025 450.7C214.091 452.4 213.625 454.333 213.625 456.5C213.625 458.667 214.091 460.6 215.025 462.3C215.991 464 217.308 465.333 218.975 466.3C220.641 467.233 222.508 467.7 224.575 467.7ZM272.112 474L265.362 464.25H264.962H257.912V474H249.812V439H264.962C268.062 439 270.745 439.517 273.012 440.55C275.312 441.583 277.079 443.05 278.312 444.95C279.545 446.85 280.162 449.1 280.162 451.7C280.162 454.3 279.529 456.55 278.262 458.45C277.029 460.317 275.262 461.75 272.962 462.75L280.812 474H272.112ZM271.962 451.7C271.962 449.733 271.329 448.233 270.062 447.2C268.795 446.133 266.945 445.6 264.512 445.6H257.912V457.8H264.512C266.945 457.8 268.795 457.267 270.062 456.2C271.329 455.133 271.962 453.633 271.962 451.7ZM326.53 438.4C330.663 438.4 333.88 439.617 336.18 442.05C338.48 444.45 339.63 447.933 339.63 452.5V474H331.53V452.75C331.53 450.283 330.88 448.433 329.58 447.2C328.313 445.933 326.63 445.3 324.53 445.3C322.23 445.3 320.396 445.967 319.03 447.3C317.663 448.6 316.98 450.583 316.98 453.25V474H308.88V452.75C308.88 450.283 308.28 448.433 307.08 447.2C305.88 445.933 304.246 445.3 302.18 445.3C299.913 445.3 298.096 445.967 296.73 447.3C295.363 448.6 294.68 450.583 294.68 453.25V474H286.58V439H294.43V443.3C295.496 441.733 296.913 440.533 298.68 439.7C300.446 438.833 302.48 438.4 304.78 438.4C307.18 438.4 309.28 438.85 311.08 439.75C312.88 440.617 314.263 441.883 315.23 443.55C316.43 441.883 317.996 440.617 319.93 439.75C321.896 438.85 324.096 438.4 326.53 438.4Z" fill="#3EC98C"/>
</svg>
