<svg width="409" height="489" viewBox="0 0 409 489" fill="none" xmlns="http://www.w3.org/2000/svg">
<path d="M113.65 450.8C110.65 449.067 107.433 447.95 104 447.45V476H95.9V447.45C92.4667 447.95 89.2333 449.067 86.2 450.8L83.45 444.75C85.85 443.317 88.45 442.233 91.25 441.5C94.05 440.767 96.9333 440.4 99.9 440.4C102.9 440.4 105.8 440.767 108.6 441.5C111.433 442.233 114.033 443.317 116.4 444.75L113.65 450.8ZM142.335 476L135.585 466.25H135.185H128.135V476H120.035V441H135.185C138.285 441 140.968 441.517 143.235 442.55C145.535 443.583 147.301 445.05 148.535 446.95C149.768 448.85 150.385 451.1 150.385 453.7C150.385 456.3 149.751 458.55 148.485 460.45C147.251 462.317 145.485 463.75 143.185 464.75L151.035 476H142.335ZM142.185 453.7C142.185 451.733 141.551 450.233 140.285 449.2C139.018 448.133 137.168 447.6 134.735 447.6H128.135V459.8H134.735C137.168 459.8 139.018 459.267 140.285 458.2C141.551 457.133 142.185 455.633 142.185 453.7ZM168.802 447.5V469.5H174.852V476H154.602V469.5H160.702V447.5H154.602V441H174.852V447.5H168.802ZM204.378 457.95H211.778V476H205.678V473.9C203.245 475.7 200.111 476.6 196.278 476.6C193.045 476.6 190.078 475.9 187.378 474.5C184.678 473.1 182.528 471.067 180.928 468.4C179.328 465.7 178.528 462.5 178.528 458.8C178.528 455.233 179.345 452.067 180.978 449.3C182.645 446.5 184.945 444.317 187.878 442.75C190.811 441.183 194.111 440.4 197.778 440.4C200.845 440.4 203.628 440.917 206.128 441.95C208.628 442.983 210.728 444.483 212.428 446.45L207.228 451.25C204.728 448.617 201.711 447.3 198.178 447.3C195.945 447.3 193.961 447.783 192.228 448.75C190.495 449.683 189.145 451.017 188.178 452.75C187.211 454.483 186.728 456.483 186.728 458.75C186.728 461.117 187.195 463.133 188.128 464.8C189.095 466.467 190.378 467.733 191.978 468.6C193.578 469.433 195.328 469.85 197.228 469.85C200.061 469.85 202.445 469.05 204.378 467.45V457.95ZM242.952 457.95H250.352V476H244.252V473.9C241.819 475.7 238.686 476.6 234.852 476.6C231.619 476.6 228.652 475.9 225.952 474.5C223.252 473.1 221.102 471.067 219.502 468.4C217.902 465.7 217.102 462.5 217.102 458.8C217.102 455.233 217.919 452.067 219.552 449.3C221.219 446.5 223.519 444.317 226.452 442.75C229.386 441.183 232.686 440.4 236.352 440.4C239.419 440.4 242.202 440.917 244.702 441.95C247.202 442.983 249.302 444.483 251.002 446.45L245.802 451.25C243.302 448.617 240.286 447.3 236.752 447.3C234.519 447.3 232.536 447.783 230.802 448.75C229.069 449.683 227.719 451.017 226.752 452.75C225.786 454.483 225.302 456.483 225.302 458.75C225.302 461.117 225.769 463.133 226.702 464.8C227.669 466.467 228.952 467.733 230.552 468.6C232.152 469.433 233.902 469.85 235.802 469.85C238.636 469.85 241.019 469.05 242.952 467.45V457.95ZM286.477 473C284.81 474.133 282.71 475.017 280.177 475.65C277.677 476.283 275.01 476.6 272.177 476.6C268.643 476.6 265.643 476.167 263.177 475.3C260.71 474.4 258.843 473.167 257.577 471.6C256.31 470 255.677 468.183 255.677 466.15C255.677 464.283 256.193 462.633 257.227 461.2C258.26 459.767 259.677 458.7 261.477 458C260.11 457.267 259.043 456.267 258.277 455C257.543 453.733 257.177 452.317 257.177 450.75C257.177 448.85 257.76 447.117 258.927 445.55C260.093 443.983 261.86 442.733 264.227 441.8C266.593 440.867 269.493 440.4 272.927 440.4C275.193 440.4 277.41 440.633 279.577 441.1C281.743 441.533 283.627 442.133 285.227 442.9L282.977 449.1C279.91 447.667 276.66 446.95 273.227 446.95C270.627 446.95 268.66 447.35 267.327 448.15C266.027 448.917 265.377 449.967 265.377 451.3C265.377 452.533 265.81 453.483 266.677 454.15C267.577 454.783 268.927 455.1 270.727 455.1H280.277V461.5H270.227C268.193 461.5 266.627 461.85 265.527 462.55C264.427 463.25 263.877 464.267 263.877 465.6C263.877 467 264.577 468.1 265.977 468.9C267.41 469.667 269.593 470.05 272.527 470.05C274.593 470.05 276.66 469.783 278.727 469.25C280.793 468.683 282.543 467.9 283.977 466.9L286.477 473ZM313.526 476L306.776 466.25H306.376H299.326V476H291.226V441H306.376C309.476 441 312.16 441.517 314.426 442.55C316.726 443.583 318.493 445.05 319.726 446.95C320.96 448.85 321.576 451.1 321.576 453.7C321.576 456.3 320.943 458.55 319.676 460.45C318.443 462.317 316.676 463.75 314.376 464.75L322.226 476H313.526ZM313.376 453.7C313.376 451.733 312.743 450.233 311.476 449.2C310.21 448.133 308.36 447.6 305.926 447.6H299.326V459.8H305.926C308.36 459.8 310.21 459.267 311.476 458.2C312.743 457.133 313.376 455.633 313.376 453.7Z" fill="#3EC98C"/>
<path d="M32.3978 105.137L204.5 5.7735L376.602 105.137V303.863L204.5 403.226L32.3978 303.863V105.137Z" stroke="#3EC98C" stroke-width="10"/>
<path d="M60 288L205.25 202.5M350.5 288L205.25 202.5M205.25 202.5V35.5" stroke="#51BC8D" stroke-width="9"/>
<path d="M60.1106 121.137L204.5 37.7735L348.889 121.137V287.863L204.5 371.226L60.1106 287.863V121.137Z" stroke="#3EC98C" stroke-width="10"/>
<path d="M60.5 120.5L102.5 152L184 139.5V183L165 161.5L204 369.5V105.5H87L60.5 120.5Z" fill="#41655E" stroke="#3EC98C" stroke-width="4"/>
<path d="M350.5 121L308.5 152.5L227 140V183.5L246 162L207 370V106H324L350.5 121Z" fill="#41655E" stroke="#3EC98C" stroke-width="4"/>
</svg>
